<?xml version="1.0" standalone="no"?>
<!DOCTYPE svg PUBLIC "-//W3C//DTD SVG 20010904//EN"
 "http://www.w3.org/TR/2001/REC-SVG-20010904/DTD/svg10.dtd">
<svg version="1.0" xmlns="http://www.w3.org/2000/svg"
 width="550.000000pt" height="464.000000pt" viewBox="0 0 550.000000 464.000000"
 preserveAspectRatio="xMidYMid meet">

<g transform="translate(0.000000,464.000000) scale(0.100000,-0.100000)"
fill="#000000" stroke="none">
<path d="M2516 4297 c-4 -48 -6 -165 -5 -260 l1 -173 -102 -165 c-124 -197
-136 -212 -320 -402 -275 -283 -500 -439 -671 -466 -77 -13 -72 -24 8 -18 91
7 276 66 400 127 l93 46 -43 -46 c-23 -25 -123 -128 -223 -230 -99 -102 -206
-216 -236 -255 -31 -38 -68 -81 -83 -95 -15 -14 -36 -38 -47 -54 l-21 -28 22
12 c13 6 89 66 169 133 169 138 263 202 528 354 191 109 456 230 668 305 144
50 160 48 47 -7 -195 -95 -397 -210 -588 -334 -370 -242 -501 -344 -730 -565
-129 -124 -329 -343 -321 -351 2 -3 38 26 79 63 62 57 117 103 273 231 23 19
27 26 -145 -252 l-117 -189 -86 -51 c-47 -29 -120 -81 -161 -116 -78 -65 -94
-94 -28 -48 51 35 214 111 310 144 72 24 90 26 243 26 174 0 251 -11 385 -56
l69 -24 -139 0 c-174 0 -286 -19 -465 -79 -332 -112 -608 -290 -887 -573 -68
-68 -123 -129 -123 -135 0 -5 15 4 33 21 58 55 502 373 520 373 3 0 -68 -118
-158 -263 l-164 -262 47 -7 c26 -3 160 -12 297 -18 138 -7 288 -15 335 -19
l84 -6 -74 -37 c-123 -61 -229 -136 -333 -237 -96 -93 -133 -143 -58 -79 100
85 610 290 804 322 l71 12 -65 49 c-35 27 -118 92 -184 145 -66 53 -131 104
-145 114 -34 24 -21 19 89 -37 101 -52 238 -135 421 -255 165 -108 569 -293
638 -292 9 0 -41 31 -113 68 -71 37 -169 94 -218 127 l-87 60 352 3 c194 2
423 -2 508 -8 164 -11 420 -53 580 -95 128 -33 285 -57 351 -53 l54 3 -40 8
c-113 23 -295 82 -406 133 -264 120 -710 286 -927 344 -45 12 -85 26 -88 31
-3 5 -17 10 -32 10 -17 1 -20 3 -10 6 23 6 314 -47 533 -97 188 -43 217 -53
616 -210 378 -150 542 -187 854 -195 l170 -5 -75 19 c-41 11 -138 32 -215 47
-77 14 -195 42 -263 60 -119 33 -277 92 -269 101 3 2 128 -10 278 -26 262 -29
373 -38 700 -61 174 -12 319 -13 318 -2 0 4 -46 29 -101 56 -216 106 -546 349
-703 518 -75 80 -207 253 -244 320 -27 50 -24 47 51 -47 77 -95 129 -144 293
-275 219 -175 310 -231 582 -357 135 -62 248 -112 250 -110 2 2 -75 130 -171
283 -96 153 -173 280 -172 281 2 2 25 -3 52 -11 27 -8 102 -27 167 -42 179
-41 168 -20 -30 60 -193 78 -656 314 -851 434 -73 45 -135 82 -138 82 -9 0
151 -299 201 -374 30 -46 -2 -21 -69 52 -130 143 -258 370 -361 640 l-25 63
98 -91 c95 -89 281 -222 492 -352 286 -176 730 -389 730 -350 0 4 -15 13 -33
20 -78 28 -320 208 -461 342 -220 209 -335 416 -486 870 -94 281 -116 427 -96
645 8 95 -7 57 -34 -82 -32 -167 -41 -285 -31 -403 5 -58 8 -106 7 -108 -2 -1
-135 211 -297 470 -310 499 -334 546 -385 744 -12 51 -26 132 -30 180 -10 138
-21 130 -29 -21 -14 -265 30 -702 101 -1000 37 -154 74 -272 142 -452 22 -56
36 -100 31 -98 -16 11 -79 124 -114 206 -91 212 -154 428 -195 672 -59 351
-80 644 -62 857 10 122 2 158 -22 99 -18 -45 -56 -217 -65 -299 l-7 -65 -33
100 c-36 108 -129 315 -141 315 -5 0 -47 -64 -96 -142 -48 -79 -93 -149 -100
-157 -9 -10 -17 8 -38 96 -14 60 -26 120 -26 134 -1 13 -7 46 -14 73 l-13 50
-7 -87z m353 -374 c56 -176 151 -488 151 -499 0 -4 -39 53 -86 127 -47 74 -91
140 -99 147 -10 12 -18 6 -45 -34 l-33 -47 -17 34 c-10 19 -32 71 -50 116
l-32 82 57 98 c84 142 85 144 94 138 5 -2 32 -76 60 -162z m-305 -318 c10 -36
31 -92 46 -124 l28 -59 -27 -41 c-15 -23 -31 -38 -36 -34 -4 5 -5 3 -2 -3 6
-11 -24 -60 -46 -75 -5 -3 -9 -10 -10 -15 -1 -5 -6 -8 -11 -6 -5 2 -5 -5 -2
-15 6 -14 2 -13 -14 5 -11 12 -25 22 -30 22 -6 0 -10 7 -10 15 0 8 -4 15 -10
15 -23 0 -49 39 -45 69 3 19 -2 34 -13 42 -14 11 -15 11 -4 -1 6 -8 12 -18 12
-24 0 -5 -6 -1 -14 10 -11 15 -12 22 -3 34 7 8 18 26 25 39 8 13 23 40 34 60
28 50 100 151 107 151 3 0 15 -29 25 -65z m429 -737 c-53 -70 -154 -173 -223
-230 l-45 -37 46 6 c131 16 381 -58 482 -143 16 -13 27 -24 25 -24 -3 0 -37
11 -78 25 -226 77 -518 82 -724 13 -95 -32 -235 -98 -298 -142 -61 -41 -43
-20 24 30 35 25 128 84 208 131 179 105 326 204 495 333 72 54 131 99 133 99
2 1 -18 -27 -45 -61z m42 -507 c126 -28 238 -67 340 -117 28 -13 55 -24 61
-24 5 0 19 -6 30 -14 11 -9 -20 -3 -83 14 -228 64 -459 79 -723 46 -177 -22
-222 -31 -362 -72 -157 -46 -212 -71 -353 -159 -19 -12 -7 5 34 47 45 47 101
89 194 144 284 169 534 209 862 135z m-405 -293 c0 -45 -35 -130 -63 -154 -64
-54 -136 -17 -145 74 -5 55 -2 57 108 86 81 21 100 20 100 -6z m578 -324 c-6
-13 -14 -24 -18 -24 -8 0 -110 163 -110 176 0 5 31 -22 69 -60 63 -63 68 -71
59 -92z m-147 -1 c32 -39 59 -76 59 -82 0 -6 -11 -18 -25 -27 -24 -16 -27 -16
-40 2 -17 22 -78 146 -106 212 l-19 47 36 -40 c20 -22 63 -72 95 -112z m-665
33 c108 -229 398 -340 644 -247 118 45 199 121 261 244 l30 58 20 -24 c10 -14
19 -32 19 -40 0 -16 -39 -108 -40 -93 0 5 -13 -8 -29 -30 -16 -21 -28 -41 -26
-44 9 -15 -107 -75 -194 -100 -132 -38 -221 -44 -361 -26 -196 26 -308 63
-398 131 -83 62 -101 109 -61 159 15 20 71 54 107 65 1 1 14 -23 28 -53z
m1256 -44 c-46 -58 -163 -165 -229 -210 -79 -53 -143 -84 -238 -115 -127 -41
-162 -48 -278 -57 -234 -17 -386 32 -732 234 -126 74 -201 106 -254 106 -38 1
-9 15 59 29 48 10 57 10 80 -7 124 -92 281 -186 364 -219 34 -13 115 -38 181
-56 103 -27 137 -32 240 -31 102 0 136 4 225 29 165 45 440 194 560 302 25 23
47 39 49 37 2 -1 -10 -21 -27 -42z m-662 -82 c11 -21 20 -41 20 -43 0 -3 -14
-7 -32 -9 -26 -4 -37 1 -60 25 -20 22 -25 34 -17 43 9 11 19 15 61 23 4 0 17
-17 28 -39z m-685 -40 c3 -6 -1 -7 -9 -4 -18 7 -21 14 -7 14 6 0 13 -4 16 -10z
m1281 -265 c100 -17 171 -50 279 -128 262 -190 264 -192 174 -143 -81 44 -267
108 -397 136 -158 34 -279 42 -391 25 -130 -21 -418 -31 -451 -16 -24 11 -23
11 7 5 58 -10 253 26 443 82 64 19 208 52 231 53 9 1 56 -6 105 -14z m-1413
-53 c42 -12 162 -55 265 -96 305 -122 471 -140 716 -79 100 25 73 6 -46 -32
-355 -112 -466 -102 -1008 97 -40 15 -90 22 -186 26 -237 9 -319 -13 -574
-156 -52 -28 -47 -22 30 40 128 102 261 173 395 209 95 26 295 21 408 -9z"/>
</g>
</svg>
